<svg id="Layer_1" data-name="Layer 1" xmlns="http://www.w3.org/2000/svg" viewBox="0 0 156 19"><defs><style>.cls-1{fill:#6a3906;}</style></defs><path class="cls-1" d="M149,11.38s1.85.21,2.37.21A5.12,5.12,0,0,0,155,10a5.11,5.11,0,0,0-3.55-1.62c-.53,0-2.38.21-2.38.21-.73,0,.09-.71.09-.71A3.45,3.45,0,0,0,149.75,4a2.21,2.21,0,0,0-3.31-1c-.67.48-.79.93-.48.95,1.79.17,2,1.66,1.66,3.05a3.3,3.3,0,0,1-3.32,2.23,2.46,2.46,0,0,1-2.71-2.38,2.09,2.09,0,0,1,1.51-2c-2.45-2.12-4.27,2.58-5.57,3.76a5.15,5.15,0,0,1-2.32.94c-20.13-.64-39.45-1.75-39.45-1.75a5.29,5.29,0,0,1-2.49,1.87H89a1.75,1.75,0,0,0-3.44,0H80.47c-1-.52-2.07-1.54-2.07-2.25,0,.71-1.09,1.73-2.06,2.25H71.25a1.75,1.75,0,0,0-3.45,0H63.54A5.28,5.28,0,0,1,61,7.78S41.83,8.88,21.76,9.52a5.25,5.25,0,0,1-2.48-.95c-1.3-1.19-3.1-5.89-5.57-3.75a2.09,2.09,0,0,1,1.52,2A2.49,2.49,0,0,1,12.5,9.17,3.28,3.28,0,0,1,9.19,7c-.37-1.4-.12-2.88,1.67-3.06.31,0,.19-.47-.48-1A2.22,2.22,0,0,0,7.07,4a3.46,3.46,0,0,0,.62,3.85s.82.68.08.7c0,0-1.85-.2-2.37-.2A5.14,5.14,0,0,0,1.85,10,5.12,5.12,0,0,0,5.4,11.6c.52,0,2.37-.21,2.37-.21.73,0-.08.7-.08.7a3.48,3.48,0,0,0-.64,3.85,2.23,2.23,0,0,0,3.32,1c.67-.49.79-.93.47-1-1.78-.17-2-1.65-1.65-3a3.3,3.3,0,0,1,3.31-2.23,2.48,2.48,0,0,1,2.72,2.38,2.12,2.12,0,0,1-1.51,2c2.45,2.12,4.26-2.58,5.56-3.77a5.15,5.15,0,0,1,2.31-.93C41.71,11,61,12.15,61,12.15a5.35,5.35,0,0,1,2.5-1.87H67.8a1.75,1.75,0,0,0,3.45,0h5.06c1,.51,2.09,1.55,2.09,2.24,0-.69,1.11-1.73,2.09-2.24h5.07a1.75,1.75,0,0,0,3.44,0h4.26a5.28,5.28,0,0,1,2.5,1.87S115,11,135.05,10.4a5.4,5.4,0,0,1,2.48,1c1.3,1.19,3.1,5.88,5.56,3.75a2.1,2.1,0,0,1-1.51-2,2.49,2.49,0,0,1,2.72-2.38A3.28,3.28,0,0,1,147.61,13c.37,1.39.12,2.88-1.66,3-.32,0-.2.48.47,1a2.23,2.23,0,0,0,3.32-1.05,3.44,3.44,0,0,0-.63-3.84S148.3,11.41,149,11.38Z"/></svg>