<svg id="Layer_1" data-name="Layer 1" xmlns="http://www.w3.org/2000/svg" viewBox="0 0 156 19"><defs><style>.cls-1{fill:#6a3906;}</style></defs><path class="cls-1" d="M134.52,11.18c-2.22,0-2.06-1.22-2.06-1.22s-.16-1.21,2.07-1.21,4.7-.21,5.91-2.7.22-3.79.21-3.8a1.53,1.53,0,0,0-1.55-.68c-1.28.23-1.16,1.49-.68,2.37a2.38,2.38,0,0,1,0,2.68,3.92,3.92,0,0,1-3,1.6c-1.24.09-3.81-.34-4.44,1.06v.2H115.78l-7.55-.62s-2.15-.28-2.15,1.1,2.15,1.11,2.15,1.11l7.53-.63H131v.21c.64,1.39,3.21,1,4.45,1.06a3.89,3.89,0,0,1,3,1.6,2.38,2.38,0,0,1,0,2.68c-.48.88-.6,2.14.68,2.37a1.53,1.53,0,0,0,1.55-.68s1-1.33-.21-3.81S136.73,11.18,134.52,11.18Z"/><path class="cls-1" d="M154.52,9.56c-1.42-.25-2.47-1.3-3.61-2.11a6.65,6.65,0,0,0-7.62-.9c-1.15.58-2,1.55-3,2.2a7.94,7.94,0,0,1-2.4.91,11.17,11.17,0,0,1-2.23.23v.53a6.16,6.16,0,0,1,3.88.95c1.69,1.22,2.69,2.8,5.55,2.8s4.86-2.27,5.65-2.74a6,6,0,0,1,2.18-.9c.59-.06,1.21.23,1.73-.15S155.14,9.68,154.52,9.56Z"/><path class="cls-1" d="M21.2,10.42V9.89A11.27,11.27,0,0,1,19,9.66a7.78,7.78,0,0,1-2.39-.91c-1.09-.65-1.9-1.62-3.06-2.2a7.43,7.43,0,0,0-3.62-.79,7.49,7.49,0,0,0-4,1.69c-1.13.81-2.18,1.86-3.6,2.11-.63.12-.53.5-.09.82s1.14.09,1.73.15a6.09,6.09,0,0,1,2.19.9c.79.47,2.8,2.74,5.65,2.74s3.85-1.58,5.54-2.8A6.2,6.2,0,0,1,21.2,10.42Z"/><path class="cls-1" d="M104.33,8.78A1.19,1.19,0,1,0,105.51,10,1.18,1.18,0,0,0,104.33,8.78Z"/><path class="cls-1" d="M96.48,8.78A1.19,1.19,0,1,0,97.67,10,1.18,1.18,0,0,0,96.48,8.78Z"/><path class="cls-1" d="M84.42,8.78A1.19,1.19,0,1,0,85.61,10,1.18,1.18,0,0,0,84.42,8.78Z"/><rect class="cls-1" x="98.3" y="9.67" width="4.2" height="0.59"/><path class="cls-1" d="M94.93,6.55S94.22,8,91.68,8c0,0-3.45,0-4.21.34A1.62,1.62,0,0,0,86.36,10a1.57,1.57,0,0,0,1.11,1.65c.76.38,4.21.34,4.21.34,2.54,0,3.25,1.43,3.25,1.43s.73-1.07-.5-2.51A3.48,3.48,0,0,0,92.56,10a3.48,3.48,0,0,0,1.87-.91C95.66,7.61,94.93,6.55,94.93,6.55Z"/><path class="cls-1" d="M49.42,8.86l-7.55.62H25.78v-.2c-.64-1.4-3.2-1-4.45-1.06a3.91,3.91,0,0,1-3-1.6,2.38,2.38,0,0,1,0-2.68c.48-.88.6-2.14-.68-2.37a1.54,1.54,0,0,0-1.55.68s-1,1.33.21,3.8,3.72,2.7,5.92,2.7S24.34,10,24.34,10s.16,1.22-2.06,1.22-4.7.21-5.92,2.69-.22,3.8-.21,3.81a1.54,1.54,0,0,0,1.55.68c1.28-.23,1.16-1.49.68-2.37a2.38,2.38,0,0,1,0-2.68,3.87,3.87,0,0,1,3-1.6c1.25-.1,3.81.33,4.45-1.06v-.21H41.89l7.53.63s2.15.27,2.15-1.11S49.42,8.86,49.42,8.86Z"/><path class="cls-1" d="M53.32,8.78A1.19,1.19,0,1,0,54.51,10,1.19,1.19,0,0,0,53.32,8.78Z"/><path class="cls-1" d="M61.16,8.78A1.19,1.19,0,1,0,62.35,10,1.18,1.18,0,0,0,61.16,8.78Z"/><path class="cls-1" d="M73.23,8.78A1.19,1.19,0,1,0,74.41,10,1.18,1.18,0,0,0,73.23,8.78Z"/><rect class="cls-1" x="55.15" y="9.67" width="4.2" height="0.59"/><path class="cls-1" d="M70.18,8.31C69.41,7.93,66,8,66,8c-2.55,0-3.26-1.42-3.26-1.42s-.72,1.06.5,2.5a3.54,3.54,0,0,0,1.87.91,3.54,3.54,0,0,0-1.87.91,2.09,2.09,0,0,0-.5,2.51S63.42,12,66,12c0,0,3.44,0,4.21-.34A1.57,1.57,0,0,0,71.29,10,1.62,1.62,0,0,0,70.18,8.31Z"/><path class="cls-1" d="M78.82,6.7A3.26,3.26,0,1,0,82.09,10,3.27,3.27,0,0,0,78.82,6.7Zm0,5.56a2.3,2.3,0,1,1,2.3-2.3A2.29,2.29,0,0,1,78.82,12.26Z"/><path class="cls-1" d="M78.82,8.6A1.37,1.37,0,1,0,80.19,10,1.36,1.36,0,0,0,78.82,8.6Z"/></svg>