<svg id="Layer_1" data-name="Layer 1" xmlns="http://www.w3.org/2000/svg" viewBox="0 0 156 13"><defs><style>.cls-1{fill:#6a3906;}</style></defs><path class="cls-1" d="M72.86,3.32A39.11,39.11,0,0,1,59.49,5.91H43.27a2.64,2.64,0,0,0-2.35-2.56,2.65,2.65,0,0,0-2.34,2.56H1.63v.83H38.58a2.65,2.65,0,0,0,2.34,2.63,2.65,2.65,0,0,0,2.35-2.63H59.49A39.11,39.11,0,0,1,72.86,9.33l3.82-3Z"/><path class="cls-1" d="M81.58,2.47A21.62,21.62,0,0,1,78.16.35a21.62,21.62,0,0,1-3.42,2.12l3.42,2.69Z"/><path class="cls-1" d="M74.74,10.18a21.62,21.62,0,0,1,3.42,2.12,21.62,21.62,0,0,1,3.42-2.12L78.16,7.49Z"/><path class="cls-1" d="M154.69,5.91H117.86a2.35,2.35,0,1,0-4.68,0H96.83A39.18,39.18,0,0,1,83.45,3.32l-3.81,3,3.81,3A39.18,39.18,0,0,1,96.83,6.74h16.34a2.36,2.36,0,1,0,4.7,0h36.82Z"/></svg>